<svg width="204" height="46" viewBox="0 0 204 46" fill="none" xmlns="http://www.w3.org/2000/svg">
<path d="M161.67 32.5893C160.666 33.8198 159.517 34.3531 157.835 34.3531C155.374 34.3531 153.898 32.979 153.467 30.3539H164.111L164.357 29.513C164.562 28.8158 164.603 28.221 164.603 27.4007C164.603 22.7247 161.117 19.5869 155.928 19.5869C150.719 19.5869 145.469 22.8683 145.469 29.1439C145.469 34.9273 149.694 38.8034 155.969 38.8034C159.681 38.8034 162.696 37.1422 164.234 34.271L164.726 33.3481C164.767 33.2866 164.747 33.2046 164.665 33.1636L162.388 31.8715C162.327 31.8305 162.265 31.851 162.224 31.9125L161.67 32.5893ZM157.2 26.8469C157.2 26.8469 157.077 26.929 156.605 26.929L153.426 26.9085C153.672 24.4269 154.451 22.9708 155.559 22.9708C157.118 22.9708 157.343 24.6525 157.343 25.6369C157.343 26.6213 157.2 26.8264 157.2 26.8469Z" fill="#007130"/>
<path d="M201.642 31.8715C201.581 31.8305 201.519 31.851 201.478 31.9125L200.924 32.5893C199.919 33.8198 198.771 34.3531 197.089 34.3531C194.628 34.3531 193.131 32.979 192.721 30.3539H203.365L203.611 29.513C203.816 28.8158 203.857 28.221 203.857 27.4007C203.857 22.7247 200.371 19.5869 195.182 19.5869C189.973 19.5869 184.723 22.8683 184.723 29.1439C184.723 34.9273 188.947 38.8034 195.223 38.8034C198.935 38.8034 201.95 37.1422 203.488 34.271L203.98 33.3481C204.021 33.2866 204.001 33.2046 203.919 33.1636L201.642 31.8715ZM196.433 26.8469C196.433 26.8469 196.31 26.929 195.838 26.929L192.659 26.9085C192.906 24.4269 193.685 22.9708 194.792 22.9708C196.351 22.9708 196.577 24.6525 196.577 25.6369C196.597 26.6213 196.454 26.8264 196.433 26.8469Z" fill="#007130"/>
<path d="M90.8342 16.388C93.4732 16.388 95.6126 14.2486 95.6126 11.6095C95.6126 8.97046 93.4732 6.83105 90.8342 6.83105C88.1951 6.83105 86.0557 8.97046 86.0557 11.6095C86.0557 14.2486 88.1951 16.388 90.8342 16.388Z" fill="#007130"/>
<path d="M70.0378 22.4583C70.0378 22.4583 70.0174 22.5195 69.9766 22.6011L70.0378 22.4583Z" fill="#007130"/>
<path d="M76.8272 7.17969C75.207 7.2002 74.6123 8.6563 74.6123 8.6563L70.408 22.4585L70.3465 22.6021C70.1414 23.1763 69.4031 25.3503 69.6082 27.5242L70.1619 32.9794L68.2341 28.0369L61.8765 8.63579C61.8765 8.63579 61.2612 7.17969 59.6616 7.15918H52.1349C52.0324 7.15918 51.9709 7.26172 52.0119 7.34376L63.4146 36.0762C63.6812 36.6299 64.6656 38.3527 66.9011 38.2911H71.9667C72.0282 38.2911 72.0692 38.2501 72.0897 38.2091L84.4769 7.38477C84.5179 7.30274 84.4564 7.2002 84.3538 7.2002H76.8272V7.17969Z" fill="#007130"/>
<path d="M144.341 24.509C143.501 21.5762 140.445 19.5869 136.651 19.5869C130.17 19.5869 125.638 23.5451 125.638 29.2259C125.638 34.8658 129.842 38.8034 135.871 38.8034C139.666 38.8034 142.496 37.3473 144.259 34.4966L144.834 33.5532C144.875 33.4917 144.854 33.4097 144.793 33.3686L142.475 32.0356C142.414 31.9946 142.352 32.0151 142.311 32.0561L141.757 32.6714C140.711 33.8198 139.625 34.3531 138.168 34.3531C135.236 34.3531 133.492 32.2612 133.492 28.7542C133.492 25.2473 134.928 23.0323 137.225 22.9708L137.389 24.1398C137.533 26.6624 138.927 28.098 141.183 28.098C142.578 28.098 143.603 27.4827 144.177 26.3547C144.547 25.5959 144.403 24.714 144.341 24.509Z" fill="#007130"/>
<path d="M122.807 35.3582V24.3452C122.807 24.3041 122.807 24.2631 122.807 24.2426C122.787 18.7668 116.922 19.2795 115.937 19.4026C113.599 19.7102 111.179 20.5511 109.641 21.638V21.3509C109.641 20.2229 108.862 19.7102 108.862 19.7102L107.898 19.095L99.4277 21.8226V23.1967C99.4482 23.3607 99.5713 23.9555 100.412 24.0991L102.34 24.2631V35.4198L100.002 35.6043C99.8584 35.6249 99.7559 35.7274 99.7559 35.871V38.0449C99.7559 38.1884 99.8789 38.3115 100.022 38.3115H111.282C111.425 38.3115 111.548 38.1884 111.548 38.0449V35.8504C111.548 35.7069 111.446 35.6043 111.323 35.5838L109.682 35.3787V25.5347C111.917 24.2426 113.62 24.2016 114.584 24.6118C114.604 24.6323 115.527 25.0424 115.445 26.437C115.445 26.8267 115.445 27.3599 115.445 27.9547V35.4403L113.866 35.6043C113.722 35.6249 113.62 35.7274 113.62 35.871V38.0449C113.62 38.1884 113.743 38.3115 113.886 38.3115H125.166C125.31 38.3115 125.433 38.1884 125.433 38.0449V35.871C125.433 35.7274 125.33 35.6249 125.186 35.6043L122.807 35.3582Z" fill="#007130"/>
<path d="M95.1205 35.3377V20.9818V20.8177C95.1205 19.6897 94.3412 19.177 94.3412 19.177L93.7054 18.7668L84.5791 21.3919V22.5404C84.5791 22.5404 84.5996 23.4223 85.7481 23.5043L87.5118 23.6479V35.3788L84.2715 35.5633C84.1279 35.5633 84.0254 35.6864 84.0254 35.8299V38.0244C84.0254 38.1679 84.1484 38.291 84.292 38.291H97.9302C98.0737 38.291 98.1968 38.1679 98.1968 38.0244V35.8299C98.1968 35.6864 98.0942 35.5838 97.9507 35.5633L95.1205 35.3377Z" fill="#007130"/>
<path d="M184.599 22.2535C184.21 21.064 183.184 19.5669 180.457 19.5669C179.103 19.5669 177.503 20.5923 176.252 22.0894L176.232 21.3101C176.15 20.5308 175.719 20.1001 175.535 19.9771L174.796 19.5054L165.937 22.151V23.3405C165.957 23.484 166.08 24.1198 166.941 24.2634L168.746 24.4069C168.787 24.4479 168.808 24.4684 168.849 24.53V35.4405L165.998 35.6046C165.854 35.6046 165.752 35.7276 165.752 35.8712V38.0656C165.752 38.2092 165.875 38.3322 166.019 38.3322H179.267C179.411 38.3322 179.534 38.2092 179.534 38.0656V35.8712C179.534 35.7276 179.431 35.6046 179.288 35.6046L176.457 35.3995V28.0779L176.478 27.9959C176.868 26.7039 177.298 25.8015 177.934 25.0632C178.734 25.904 179.718 26.6423 181.195 26.6423C182.856 26.6423 184.046 25.781 184.538 24.2634C184.804 23.1969 184.681 22.4996 184.599 22.2535Z" fill="#007130"/>
<path d="M45.9202 21.3715L36.3017 17.5364L40.0343 8.92281C40.1163 8.67671 40.3624 7.83586 39.6446 7.15908L38.0654 5.57992C38.0449 5.55941 38.0244 5.55941 38.0039 5.55941L28.4469 9.66112L25.0015 0.965502C24.899 0.719399 24.4478 -0.0394166 23.4634 0.00160044H21.2484C21.2279 0.00160044 21.2074 0.022109 21.1869 0.0426175L17.3313 9.68163L8.90231 6.05162C8.6562 5.96958 7.81535 5.72348 7.13857 6.44128L5.55941 8.02044C5.53891 8.04095 5.53891 8.06146 5.53891 8.08196L9.5996 17.5364L0.965502 20.9613C0.719399 21.0639 -0.0394166 21.5151 0.00160044 22.4995V24.7144C0.00160044 24.7349 0.022109 24.7554 0.0426175 24.7759L9.55858 28.5905H9.5996L9.57909 28.611L5.92857 37.0605C5.84653 37.3066 5.60043 38.1475 6.31823 38.8243L7.89739 40.4034C7.9179 40.4239 7.9384 40.4239 7.95891 40.4239L17.3928 36.3837V36.4453L20.7768 44.9973C20.8793 45.2434 21.3305 46.0022 22.3149 45.9612H24.5298C24.5503 45.9612 24.5708 45.9407 24.5913 45.9202L28.3854 36.4248L37.04 40.1778C37.2861 40.2599 38.127 40.506 38.8038 39.7882L40.3829 38.209C40.4034 38.1885 40.4034 38.168 40.4034 38.1475L36.3222 28.6315L44.9768 25.1861C45.2229 25.0835 45.9817 24.6324 45.9407 23.6479V21.433C45.9407 21.392 45.9407 21.3715 45.9202 21.3715ZM41.4494 23.0737L32.9588 25.8424C32.9588 25.8424 32.9383 25.8424 32.9178 25.8629C32.2615 26.0474 31.7693 26.6422 31.7693 27.3805C31.7693 27.6676 31.8514 27.9342 31.9744 28.1598C31.9744 28.1803 31.9949 28.2008 31.9949 28.2008L34.9687 33.7792L34.9892 33.8407C35.0917 34.0868 35.5429 34.9892 36.2812 35.5839L38.1475 37.1015L36.0146 36.1787L28.0368 32.1385C28.0368 32.1385 28.0163 32.1385 27.9958 32.118C27.7497 31.9539 27.4625 31.8719 27.1344 31.8719C26.4781 31.8719 25.9039 32.282 25.6783 32.8563C25.6373 32.9178 25.6168 32.9588 25.6168 32.9588L23.771 39.0088L23.7505 39.0704C23.6479 39.3165 23.3403 40.2804 23.4223 41.2238L23.6685 43.6233L22.8276 41.4699L20.1 32.9588C20.1 32.9588 20.059 32.8563 19.9564 32.7332C19.6898 32.2205 19.1771 31.8719 18.5618 31.8719C18.3773 31.8719 18.1927 31.9129 18.0081 31.9744C17.9261 31.9949 17.885 32.0154 17.885 32.0154L12.3067 34.9687L12.2452 34.9892C11.9991 35.0917 11.0967 35.5429 10.502 36.2812L8.98434 38.1475L9.90722 36.0146L13.9474 28.0778C13.9474 28.0778 13.9474 28.0573 13.9679 28.0163C14.0705 27.8112 14.1115 27.5856 14.1115 27.36C14.1115 26.6422 13.6398 26.0474 12.9835 25.8629L12.4708 25.7193L6.93349 24.0376L6.87196 24.0171C6.62586 23.9146 5.66196 23.6069 4.71856 23.689L2.31907 23.9351L4.47246 23.0942L12.963 20.305C12.963 20.305 12.9835 20.305 13.004 20.2845C13.6398 20.0795 14.1115 19.4847 14.1115 18.7874C14.1115 18.5208 14.0499 18.2542 13.9269 18.0491L10.9737 12.4298L10.9532 12.3682C10.8506 12.1221 10.3994 11.2198 9.66112 10.625L7.79485 9.10739L9.92773 10.0303L17.9056 14.0705C17.9056 14.0705 17.9261 14.0705 17.9671 14.091C18.1722 14.173 18.3773 14.2345 18.6028 14.2345C19.3822 14.2345 20.0384 13.6603 20.141 12.922L21.9662 6.95399L21.9868 6.89247C22.0893 6.64637 22.3969 5.68246 22.3149 4.73907L22.0688 2.33957L22.9096 4.49297L25.6783 12.963C25.8218 13.6808 26.4576 14.2345 27.2164 14.2345C27.5856 14.2345 27.9137 14.1115 28.1803 13.9064L33.6356 10.9737L33.6971 10.9532C33.9432 10.8506 34.8456 10.3994 35.4404 9.66112L36.958 7.79484L36.0351 9.92773L31.9949 17.885C31.9949 17.885 31.9949 17.9056 31.9744 17.9261C31.8308 18.1722 31.7283 18.4593 31.7283 18.7669C31.7283 19.5052 32.241 20.1205 32.9178 20.2845H32.9383L38.9883 22.1303L39.0499 22.1508C39.296 22.2534 40.2599 22.561 41.2033 22.479L43.6028 22.2329L41.4494 23.0737Z" fill="#FABE00"/>
</svg>
